{
    "asset" : {
        "generator" : "Khronos glTF Blender I/O v1.7.33",
        "version" : "2.0"
    },
    "scene" : 0,
    "scenes" : [
        {
            "name" : "Scene",
            "nodes" : [
                0,
                1,
                2,
                3,
                4
            ]
        }
    ],
    "nodes" : [
        {
            "mesh" : 0,
            "name" : "Cube",
            "scale" : [
                5,
                0.25,
                1.5
            ]
        },
        {
            "mesh" : 1,
            "name" : "shelf3",
            "scale" : [
                4.170000076293945,
                1,
                1.25
            ],
            "translation" : [
                0,
                2.75,
                -0.10000000149011612
            ]
        },
        {
            "mesh" : 2,
            "name" : "shelf1",
            "scale" : [
                4.170000076293945,
                1,
                1.25
            ],
            "translation" : [
                0,
                7.25,
                -0.10000000149011612
            ]
        },
        {
            "mesh" : 3,
            "name" : "shelf4",
            "scale" : [
                4.170000076293945,
                1,
                1.25
            ],
            "translation" : [
                0,
                0.5,
                -0.10000000149011612
            ]
        },
        {
            "mesh" : 4,
            "name" : "shelf2",
            "scale" : [
                4.170000076293945,
                1,
                1.25
            ],
            "translation" : [
                0,
                5,
                -0.10000000149011612
            ]
        }
    ],
    "materials" : [
        {
            "doubleSided" : true,
            "name" : "Material",
            "pbrMetallicRoughness" : {
                "baseColorFactor" : [
                    0.23074021935462952,
                    0.08865558356046677,
                    0.07227186858654022,
                    1
                ],
                "metallicFactor" : 0,
                "roughnessFactor" : 0.4000000059604645
            }
        },
        {
            "doubleSided" : true,
            "name" : "Material.001",
            "pbrMetallicRoughness" : {
                "baseColorFactor" : [
                    0.23074021935462952,
                    0.08865558356046677,
                    0.07227186858654022,
                    1
                ],
                "metallicFactor" : 0,
                "roughnessFactor" : 0.5
            }
        },
        {
            "doubleSided" : true,
            "name" : "Material.002",
            "pbrMetallicRoughness" : {
                "baseColorFactor" : [
                    0.23074021935462952,
                    0.08865558356046677,
                    0.07227186858654022,
                    1
                ],
                "metallicFactor" : 0,
                "roughnessFactor" : 0.5
            }
        },
        {
            "doubleSided" : true,
            "name" : "Material.003",
            "pbrMetallicRoughness" : {
                "baseColorFactor" : [
                    0.23074021935462952,
                    0.08865558356046677,
                    0.07227186858654022,
                    1
                ],
                "metallicFactor" : 0,
                "roughnessFactor" : 0.5
            }
        },
        {
            "doubleSided" : true,
            "name" : "Material.004",
            "pbrMetallicRoughness" : {
                "baseColorFactor" : [
                    0.23074021935462952,
                    0.08865558356046677,
                    0.07227186858654022,
                    1
                ],
                "metallicFactor" : 0,
                "roughnessFactor" : 0.5
            }
        }
    ],
    "meshes" : [
        {
            "name" : "Cube.001",
            "primitives" : [
                {
                    "attributes" : {
                        "POSITION" : 0,
                        "NORMAL" : 1,
                        "TEXCOORD_0" : 2
                    },
                    "indices" : 3,
                    "material" : 0
                }
            ]
        },
        {
            "name" : "Plane",
            "primitives" : [
                {
                    "attributes" : {
                        "POSITION" : 4,
                        "NORMAL" : 5,
                        "TEXCOORD_0" : 6
                    },
                    "indices" : 7,
                    "material" : 1
                }
            ]
        },
        {
            "name" : "Plane.001",
            "primitives" : [
                {
                    "attributes" : {
                        "POSITION" : 8,
                        "NORMAL" : 9,
                        "TEXCOORD_0" : 10
                    },
                    "indices" : 7,
                    "material" : 2
                }
            ]
        },
        {
            "name" : "Plane.002",
            "primitives" : [
                {
                    "attributes" : {
                        "POSITION" : 11,
                        "NORMAL" : 12,
                        "TEXCOORD_0" : 13
                    },
                    "indices" : 7,
                    "material" : 3
                }
            ]
        },
        {
            "name" : "Plane.003",
            "primitives" : [
                {
                    "attributes" : {
                        "POSITION" : 14,
                        "NORMAL" : 15,
                        "TEXCOORD_0" : 16
                    },
                    "indices" : 7,
                    "material" : 4
                }
            ]
        }
    ],
    "accessors" : [
        {
            "bufferView" : 0,
            "componentType" : 5126,
            "count" : 426,
            "max" : [
                1.0000001192092896,
                40,
                1
            ],
            "min" : [
                -1.0000001192092896,
                -1,
                -1
            ],
            "type" : "VEC3"
        },
        {
            "bufferView" : 1,
            "componentType" : 5126,
            "count" : 426,
            "type" : "VEC3"
        },
        {
            "bufferView" : 2,
            "componentType" : 5126,
            "count" : 426,
            "type" : "VEC2"
        },
        {
            "bufferView" : 3,
            "componentType" : 5123,
            "count" : 1308,
            "type" : "SCALAR"
        },
        {
            "bufferView" : 4,
            "componentType" : 5126,
            "count" : 4,
            "max" : [
                1,
                0,
                1
            ],
            "min" : [
                -1,
                0,
                -1
            ],
            "type" : "VEC3"
        },
        {
            "bufferView" : 5,
            "componentType" : 5126,
            "count" : 4,
            "type" : "VEC3"
        },
        {
            "bufferView" : 6,
            "componentType" : 5126,
            "count" : 4,
            "type" : "VEC2"
        },
        {
            "bufferView" : 7,
            "componentType" : 5123,
            "count" : 6,
            "type" : "SCALAR"
        },
        {
            "bufferView" : 8,
            "componentType" : 5126,
            "count" : 4,
            "max" : [
                1,
                0,
                1
            ],
            "min" : [
                -1,
                0,
                -1
            ],
            "type" : "VEC3"
        },
        {
            "bufferView" : 9,
            "componentType" : 5126,
            "count" : 4,
            "type" : "VEC3"
        },
        {
            "bufferView" : 10,
            "componentType" : 5126,
            "count" : 4,
            "type" : "VEC2"
        },
        {
            "bufferView" : 11,
            "componentType" : 5126,
            "count" : 4,
            "max" : [
                1,
                0,
                1
            ],
            "min" : [
                -1,
                0,
                -1
            ],
            "type" : "VEC3"
        },
        {
            "bufferView" : 12,
            "componentType" : 5126,
            "count" : 4,
            "type" : "VEC3"
        },
        {
            "bufferView" : 13,
            "componentType" : 5126,
            "count" : 4,
            "type" : "VEC2"
        },
        {
            "bufferView" : 14,
            "componentType" : 5126,
            "count" : 4,
            "max" : [
                1,
                0,
                1
            ],
            "min" : [
                -1,
                0,
                -1
            ],
            "type" : "VEC3"
        },
        {
            "bufferView" : 15,
            "componentType" : 5126,
            "count" : 4,
            "type" : "VEC3"
        },
        {
            "bufferView" : 16,
            "componentType" : 5126,
            "count" : 4,
            "type" : "VEC2"
        }
    ],
    "bufferViews" : [
        {
            "buffer" : 0,
            "byteLength" : 5112,
            "byteOffset" : 0
        },
        {
            "buffer" : 0,
            "byteLength" : 5112,
            "byteOffset" : 5112
        },
        {
            "buffer" : 0,
            "byteLength" : 3408,
            "byteOffset" : 10224
        },
        {
            "buffer" : 0,
            "byteLength" : 2616,
            "byteOffset" : 13632
        },
        {
            "buffer" : 0,
            "byteLength" : 48,
            "byteOffset" : 16248
        },
        {
            "buffer" : 0,
            "byteLength" : 48,
            "byteOffset" : 16296
        },
        {
            "buffer" : 0,
            "byteLength" : 32,
            "byteOffset" : 16344
        },
        {
            "buffer" : 0,
            "byteLength" : 12,
            "byteOffset" : 16376
        },
        {
            "buffer" : 0,
            "byteLength" : 48,
            "byteOffset" : 16388
        },
        {
            "buffer" : 0,
            "byteLength" : 48,
            "byteOffset" : 16436
        },
        {
            "buffer" : 0,
            "byteLength" : 32,
            "byteOffset" : 16484
        },
        {
            "buffer" : 0,
            "byteLength" : 48,
            "byteOffset" : 16516
        },
        {
            "buffer" : 0,
            "byteLength" : 48,
            "byteOffset" : 16564
        },
        {
            "buffer" : 0,
            "byteLength" : 32,
            "byteOffset" : 16612
        },
        {
            "buffer" : 0,
            "byteLength" : 48,
            "byteOffset" : 16644
        },
        {
            "buffer" : 0,
            "byteLength" : 48,
            "byteOffset" : 16692
        },
        {
            "buffer" : 0,
            "byteLength" : 32,
            "byteOffset" : 16740
        }
    ],
    "buffers" : [
        {
            "byteLength" : 16772,
            "uri" : "data:application/octet-stream;base64,"
        }
    ]
}
