{
    "asset" : {
        "generator" : "Khronos glTF Blender I/O v1.7.33",
        "version" : "2.0"
    },
    "scene" : 0,
    "scenes" : [
        {
            "name" : "Scene",
            "nodes" : [
                0
            ]
        }
    ],
    "nodes" : [
        {
            "mesh" : 0,
            "name" : "Plane"
        }
    ],
    "materials" : [
        {
            "doubleSided" : true,
            "name" : "goldMaterial",
            "pbrMetallicRoughness" : {
                "baseColorFactor" : [
                    0.6025475859642029,
                    0.3622998297214508,
                    0.06628024578094482,
                    1
                ]
            }
        }
    ],
    "meshes" : [
        {
            "name" : "Plane",
            "primitives" : [
                {
                    "attributes" : {
                        "POSITION" : 0,
                        "NORMAL" : 1,
                        "TEXCOORD_0" : 2
                    },
                    "indices" : 3,
                    "material" : 0
                }
            ]
        }
    ],
    "accessors" : [
        {
            "bufferView" : 0,
            "componentType" : 5126,
            "count" : 124,
            "max" : [
                50.16180419921875,
                2.994576930999756,
                20.15929412841797
            ],
            "min" : [
                -7.110574722290039,
                -0.025541439652442932,
                -7.113085746765137
            ],
            "type" : "VEC3"
        },
        {
            "bufferView" : 1,
            "componentType" : 5126,
            "count" : 124,
            "type" : "VEC3"
        },
        {
            "bufferView" : 2,
            "componentType" : 5126,
            "count" : 124,
            "type" : "VEC2"
        },
        {
            "bufferView" : 3,
            "componentType" : 5123,
            "count" : 180,
            "type" : "SCALAR"
        }
    ],
    "bufferViews" : [
        {
            "buffer" : 0,
            "byteLength" : 1488,
            "byteOffset" : 0
        },
        {
            "buffer" : 0,
            "byteLength" : 1488,
            "byteOffset" : 1488
        },
        {
            "buffer" : 0,
            "byteLength" : 992,
            "byteOffset" : 2976
        },
        {
            "buffer" : 0,
            "byteLength" : 360,
            "byteOffset" : 3968
        }
    ],
    "buffers" : [
        {
            "byteLength" : 4328,
            "uri" : "data:application/octet-stream;base64,"
        }
    ]
}
